<?xml version="1.0" encoding="UTF-8"?>
<svg id="Layer_1" xmlns="http://www.w3.org/2000/svg" version="1.1" viewBox="0 0 32 32">
  <!-- Generator: Adobe Illustrator 29.1.0, SVG Export Plug-In . SVG Version: 2.1.0 Build 142)  -->
  <defs>
    <style>
      .st0 {
        fill: #ec2227;
        fill-rule: evenodd;
      }
    </style>
  </defs>
  <g id="g1">
    <g id="group-R5">
      <path id="path2" class="st0" d="M20.3,14c.3-.8.7-1.6.8-2.5,0-1,0-3.2-1.2-2.7-.7.3-1.4.8-2,1.3-1.7,1.2-3.1,2.4-4.5,3.8-.2.2-.6.8-.9.8-.4,0-.8,0-1.2,0-4,.3-7.5,1.2-10.4,2.6-.1,0-.5.1-.4.4.2.2.4,0,.6,0,3.2-1.2,6.8-2,10.8-2.2-.8,1.1-2,2.5-2.4,3.9-.1.5-.2,1.8.4,1.7.4,0,.3-.8.3-1.3,0-1,.7-1.8,1.3-2.6.5-.7,1-1.4,1.5-1.8,1.3,0,2.4-.2,3.7-.2-.3-.3-.9-.2-1.4-.3-.5,0-1.1,0-1.6-.2,2-1.9,4-3.8,6.5-5.1.5,2.2-.3,3.9-1.2,5.3-.5.9-1.1,2.1-1.7,2.8-.9,1.3-1.9,2.6-2.9,3.9-.3.4-.9,1.1-.8,1.5,0,.2.2.4.4.4s.7-.6,1-.8c1.6-1.5,3.1-2.9,4.7-4.2.6-.5,1.4-1.2,2.4-1.1.3,1.7-.3,2.7-1,3.7-.3.4-1.7,2-1,2.4.4.2,1.1-.5,1.4-.8.9-.8,1.4-1.2,2.3-2,.3-.2.9-.9,1.4-.8.4,0,.7.7.9,1.1.3.6.3,1.5,1.1,1.4.4,0,.9-.8,1.2-1.2.7-.9,1.4-1.8,1.9-2.8.3-.5.7-1.1.8-1.6,0-.3.1-.5,0-.6-.6-.1-.9.5-1.2,1-.3.5-.5,1-.8,1.5-.6.9-1.2,1.9-2,2.6-.4-.9-1.1-2.5-2.6-1.8-.8.4-1.6,1.4-2.2,1.7.3-.6.7-1.2.8-2.1,0-.7,0-1.5-.2-1.9-.5-.8-1.7-.2-2.3.2-1.5.9-2.8,2.3-3.9,3.1,1.3-1.8,2.8-3.9,3.7-6.1"/>
      <path id="path3" class="st0" d="M16.6,20.1c1.1-.8,2.5-2.2,3.9-3.1.6-.4,1.8-.9,2.3-.2.3.5.3,1.3.2,1.9,0,.8-.5,1.5-.8,2.1.6-.3,1.4-1.3,2.2-1.7,1.4-.6,2.2.9,2.6,1.8.8-.7,1.4-1.6,2-2.6.3-.4.6-1,.8-1.5.2-.4.5-1.1,1.2-1,.2.2.1.4,0,.6,0,.5-.5,1.1-.8,1.6-.6,1-1.2,1.9-1.9,2.8-.3.4-.8,1.1-1.2,1.2-.8.2-.8-.8-1.1-1.4-.2-.4-.5-1-.9-1.1-.5,0-1.1.6-1.4.8-.9.7-1.4,1.2-2.3,2-.3.3-1,1-1.4.8-.8-.4.7-2.1,1-2.4.7-1,1.4-1.9,1-3.7-1,0-1.8.6-2.4,1.1-1.6,1.3-3.2,2.7-4.7,4.2-.3.3-.7.8-1,.8s-.4-.2-.4-.4c0-.3.5-1.1.8-1.5,1-1.3,1.9-2.6,2.9-3.9.5-.8,1.1-1.9,1.7-2.8.8-1.4,1.7-3.2,1.2-5.3-2.5,1.4-4.5,3.2-6.5,5.1.5,0,1,.1,1.6.2.5,0,1.1,0,1.4.3-1.2,0-2.4.2-3.7.2-.5.5-1,1.1-1.5,1.8-.5.8-1.2,1.6-1.3,2.6,0,.5.1,1.3-.3,1.3-.6,0-.5-1.2-.4-1.7.3-1.5,1.6-2.8,2.4-3.9-4,.2-7.5,1-10.8,2.2-.2,0-.4.3-.6,0,0-.3.3-.3.4-.4,2.9-1.4,6.4-2.3,10.4-2.6.4,0,.5,0,1.2,0,.1,0,.6-.6.9-.8,1.4-1.4,2.8-2.6,4.5-3.8.7-.5,1.4-1,2-1.3,1.2-.5,1.2,1.7,1.2,2.7,0,.9-.4,1.7-.8,2.5-.9,2.2-2.5,4.2-3.7,6.1"/>
    </g>
  </g>
</svg>