<?xml version="1.0" encoding="UTF-8" standalone="no"?>
<!-- Created with Inkscape (http://www.inkscape.org/) -->

<svg
   version="1.1"
   id="svg1"
   width="497.17334"
   height="235.05333"
   viewBox="0 0 497.17334 235.05333"
   sodipodi:docname="AW_cmyk.eps"
   xmlns:inkscape="http://www.inkscape.org/namespaces/inkscape"
   xmlns:sodipodi="http://sodipodi.sourceforge.net/DTD/sodipodi-0.dtd"
   xmlns="http://www.w3.org/2000/svg"
   xmlns:svg="http://www.w3.org/2000/svg">
  <defs
     id="defs1" />
  <sodipodi:namedview
     id="namedview1"
     pagecolor="#ffffff"
     bordercolor="#000000"
     borderopacity="0.25"
     inkscape:showpageshadow="2"
     inkscape:pageopacity="0.0"
     inkscape:pagecheckerboard="0"
     inkscape:deskcolor="#d1d1d1">
    <inkscape:page
       x="0"
       y="0"
       inkscape:label="1"
       id="page1"
       width="497.17334"
       height="235.05333"
       margin="0"
       bleed="0" />
  </sodipodi:namedview>
  <g
     id="g1"
     inkscape:groupmode="layer"
     inkscape:label="1">
    <g
       id="group-R5">
      <path
         id="path2"
         d="m 2411.17,1128.56 c 40.89,93.4 82.9,190.9 91.19,302.87 8.87,115.22 1.72,380.23 -141.07,323.62 -79.62,-31.59 -165.25,-98.12 -244.72,-153.51 -201.96,-140.66 -376.35,-284.6 -547.65,-452.25 -30.31,-29.66 -76.33,-92.69 -103.7,-99.56 -44.67,-11.15 -100.99,3.15 -145.22,0 C 830.941,1014.71 403.988,909.227 54.5742,738.559 37.9258,730.41 -3.46094,724.129 4.75781,692.961 24.7773,664.66 59.4336,689.672 79.4453,697.102 469.387,840.117 899.977,935.961 1386.39,958.461 1293.33,826.465 1137.67,662.949 1100.09,485.422 c -12.8,-60.32 -24.24,-218.121 53.96,-207.391 54.38,7.43 31.51,93.899 37.3,157.649 10.57,116.492 89.05,214.539 153.51,311.179 56.67,84.821 122.78,165.004 182.6,219.891 153.37,4.293 293.39,21.949 443.89,29.035 -41.58,33.365 -110.13,29.855 -174.24,37.365 -64.1,7.44 -132.93,10.08 -190.81,20.73 240.06,227.34 483.19,451.67 788.29,614.05 64.6,-261 -39.6,-466.04 -141.22,-638.93 C 2188.48,917.871 2116.22,781.801 2050.19,688.82 1936.41,528.43 1818.19,378.641 1701.7,219.988 1668.84,175.102 1597.8,82.9102 1602.08,45.6016 1604.3,26.8594 1627.81,0 1656.04,0 c 35.16,0 80.69,66.3281 116.21,99.6406 193.53,181.2304 378.21,347.1874 576.75,506.1294 77.04,61.89 166.81,138.011 290.3,136.929 41.74,-209.25 -37.74,-318.597 -124.5,-439.82 -31.29,-43.731 -211.53,-240.8399 -120.21,-290.4376 49.45,-26.8633 130.64,59.0274 170.1,91.3396 113.06,92.469 175.24,149.508 282.02,236.41 31.29,25.59 110.76,102.348 165.94,95.489 45.59,-5.571 80.91,-82.059 103.78,-128.66 33.3,-67.168 31,-180.52 132.79,-161.801 50.02,9.152 104.2,90.062 145.21,141.09 90.77,112.769 164.53,213.972 236.43,336.031 35.02,59.18 79.32,134.941 91.46,195.043 6.15,31.09 13.87,54.18 -8.42,74.695 C 3638.86,909.09 3600.13,826.465 3572.96,775.855 3541.67,717.84 3507.64,653.93 3473.19,601.629 3399.16,488.711 3326.68,374.211 3232.64,294.602 3188.9,402.359 3094.41,589.629 2921.61,514.43 2824.13,472.129 2728.78,347.059 2651.87,311.18 c 35.45,68.75 86.2,147.941 95.36,249 7.28,80.898 6.42,178.019 -29.17,232.265 -60.18,92.621 -206.83,24.16 -281.88,-20.73 -177.53,-105.906 -344.55,-275.156 -477.26,-373.344 153.44,221.258 337.05,467.254 452.25,730.189"
         style="fill:#ed1c24;fill-opacity:1;fill-rule:evenodd;stroke:none"
         transform="matrix(0.13333333,0,0,-0.13333333,0,235.05333)" />
      <path
         id="path3"
         d="m 1955.23,398.371 c 132.72,98.188 299.73,267.438 477.27,373.344 75.04,44.89 221.7,113.351 281.88,20.73 35.58,-54.246 36.44,-151.367 29.16,-232.265 -9.16,-101.059 -59.91,-180.25 -95.36,-249 76.92,35.879 172.27,160.949 269.75,203.25 172.79,75.199 267.28,-112.071 311.02,-219.828 94.04,79.609 166.52,194.109 240.56,307.027 34.44,52.301 68.48,116.211 99.77,174.226 27.17,50.61 65.9,133.235 140.93,116.223 22.29,-20.515 14.58,-43.605 8.42,-74.695 -12.15,-60.102 -56.44,-135.863 -91.46,-195.043 -71.9,-122.059 -145.67,-223.262 -236.43,-336.031 -41.01,-51.028 -95.19,-131.938 -145.21,-141.09 -101.78,-18.719 -99.49,94.633 -132.8,161.801 -22.85,46.601 -58.18,123.089 -103.77,128.66 -55.17,6.859 -134.64,-69.899 -165.93,-95.489 C 2736.25,253.289 2674.06,196.25 2561,103.781 2521.54,71.4688 2440.35,-14.4219 2390.9,12.4414 c -91.31,49.5977 88.92,246.7066 120.21,290.4376 86.76,121.223 166.25,230.57 124.5,439.82 C 2512.13,743.781 2422.36,667.66 2345.31,605.77 2146.78,446.828 1962.09,280.871 1768.56,99.6406 1733.04,66.3281 1687.51,0 1652.35,0 c -28.23,0 -51.73,26.8594 -53.96,45.6016 -4.28,37.3086 66.76,129.5004 99.62,174.3864 116.5,158.653 234.71,308.442 348.49,468.832 66.04,92.981 138.29,229.051 203.19,340.18 101.62,172.89 205.82,377.93 141.21,638.93 -305.1,-162.38 -548.22,-386.71 -788.28,-614.05 57.88,-10.65 126.7,-13.29 190.81,-20.73 64.1,-7.51 132.65,-4 174.23,-37.365 -150.5,-7.086 -290.51,-24.742 -443.89,-29.035 -59.81,-54.887 -125.92,-135.07 -182.6,-219.891 -64.46,-96.64 -142.93,-194.687 -153.51,-311.179 -5.79,-63.75 17.08,-150.219 -37.29,-157.649 -78.2,-10.73 -66.77,147.071 -53.97,207.391 37.58,177.527 193.25,341.043 286.3,473.039 C 896.289,935.961 465.699,840.117 75.7578,697.102 55.7461,689.672 21.0898,664.66 1.07031,692.961 -7.14844,724.129 34.2383,730.41 50.8906,738.559 400.305,909.227 827.156,1016.14 1316.31,1049.73 c 53.39,3.67 65.76,-1.16 145.23,0 13.35,0.2 73.38,69.9 103.69,99.56 171.31,167.65 345.69,311.59 547.66,452.25 79.47,55.39 165.1,121.92 244.71,153.51 142.79,56.61 149.94,-208.4 141.07,-323.62 -8.28,-111.97 -50.29,-209.47 -91.19,-302.87 C 2292.29,865.625 2108.67,619.629 1955.23,398.371"
         style="fill:#ed1c24;fill-opacity:1;fill-rule:evenodd;stroke:none"
         transform="matrix(0.13333333,0,0,-0.13333333,0,235.05333)" />
    </g>
  </g>
</svg>
